<svg xmlns="http://www.w3.org/2000/svg" width="58.95" height="58.95" viewBox="0 0 58.95 58.95">
  <g id="curved-arrow" transform="translate(0 0)">
    <path id="curved-arrow-2" data-name="curved-arrow" d="M41.4,28.135c-.876-.707-1.707-1.47-2.559-2.212-.891-.775-2.155.618-1.253,1.4.364.317.724.637,1.086.956A43.1,43.1,0,0,0,19.7,34.839,45.994,45.994,0,0,0,5.039,51.445,40.128,40.128,0,0,0,.006,66.271c-.139,1.268,1.636,1.253,1.773,0A38.2,38.2,0,0,1,6.689,52.23a49.375,49.375,0,0,1,6.665-9.449A38.153,38.153,0,0,1,31.1,31.751a45.189,45.189,0,0,1,7.143-1.436q-.325.306-.655.606c-.888.806.374,2.2,1.253,1.4.936-.85,1.837-1.738,2.738-2.632a1.078,1.078,0,0,0-.179-1.558Z" transform="translate(47.53 -18.168) rotate(45)"/>
  </g>
</svg>
